<?xml version="1.0" encoding="UTF-8"?><svg id="Warstwa_1" xmlns="http://www.w3.org/2000/svg" viewBox="0 0 78.42 124.87"><defs><style>.cls-1{fill:#e62947;}.cls-2{fill:#8d8d8c;}</style></defs><path class="cls-1" d="M2.2,18.24c.93.19,1.85-.11,2.48-.72l5.44,1.13c.25-1.01.51-2.01.79-3.01l-5.6-1.16c-.34-.81-1.06-1.45-1.99-1.64-1.49-.31-2.95.65-3.26,2.14-.31,1.49.65,2.95,2.14,3.26Z"/><path class="cls-1" d="M73.81,17.41c.65.59,1.58.86,2.5.64,1.48-.36,2.39-1.85,2.03-3.33-.36-1.48-1.85-2.39-3.33-2.03-.92.22-1.62.88-1.93,1.71l-5.31,1.28c.22,1.01.43,2.02.63,3.04l5.41-1.31Z"/><path class="cls-1" d="M27.13,19.06c1.03,0,1.86-.83,1.86-1.86s-.83-1.86-1.86-1.86-1.86.83-1.86,1.86.83,1.86,1.86,1.86Z"/><path class="cls-1" d="M47.35,21.39c2.44,0,4.41-1.98,4.41-4.41s-1.97-4.41-4.41-4.41-4.41,1.97-4.41,4.41,1.97,4.41,4.41,4.41Z"/><path class="cls-1" d="M69.13,38.2S65.59,5.82,59.95.68c-15.56-1.95-38.8.5-43.59,4.57-3,9.68-5.78,17.12-6.19,28.31,22.8-1.32,58.96,4.63,58.96,4.63ZM37.82,14.91h1.81c.18-.68.45-1.33.8-1.93l-1.28-1.28c.75-1.17,1.75-2.17,2.92-2.92l1.28,1.28c.6-.35,1.25-.62,1.93-.8v-1.81c.67-.14,1.36-.22,2.07-.22s1.4.08,2.07.22v1.81c.69.18,1.33.45,1.93.8l1.28-1.28c1.17.75,2.17,1.75,2.92,2.92l-1.28,1.28c.35.6.62,1.25.8,1.93h1.81c.15.67.22,1.36.22,2.07s-.08,1.4-.22,2.07h-1.81c-.18.68-.45,1.33-.8,1.93l1.28,1.28c-.76,1.17-1.75,2.17-2.92,2.92l-1.28-1.28c-.6.35-1.25.62-1.93.8v1.81c-.67.14-1.36.22-2.07.22s-1.4-.08-2.07-.22v-1.81c-.68-.18-1.33-.45-1.93-.8l-1.28,1.28c-1.17-.75-2.17-1.75-2.92-2.92l1.28-1.28c-.35-.6-.62-1.25-.8-1.93h-1.81c-.14-.67-.22-1.36-.22-2.07s.08-1.4.22-2.07ZM21.15,16.48c0-.12.06-.24.13-.27l1.01-.47c.1-.32.23-.63.38-.92l-.38-1.04c-.03-.08.01-.21.1-.29l1.02-1.02c.08-.08.21-.13.29-.1l1.05.38c.29-.16.6-.28.92-.38l.47-1.01c.04-.08.16-.14.27-.14h1.44c.12,0,.24.06.27.14l.47,1.01c.32.1.63.23.92.38l1.05-.38c.08-.03.21.02.29.1l1.02,1.02c.08.08.13.21.1.29l-.38,1.05c.15.29.28.6.38.92l1.01.47c.08.04.14.16.14.27v1.44c0,.12-.06.24-.14.27l-1.01.47c-.1.32-.23.63-.38.92l.38,1.05c.03.08-.02.21-.1.29l-1.02,1.02c-.08.08-.21.13-.29.1l-1.05-.38c-.29.16-.6.28-.92.38l-.47,1.01c-.04.08-.16.14-.27.14h-1.44c-.12,0-.24-.06-.27-.14l-.47-1.01c-.32-.1-.63-.23-.92-.38l-1.05.38c-.08.03-.21-.02-.29-.1l-1.02-1.02c-.08-.08-.13-.21-.1-.29l.38-1.05c-.16-.29-.28-.6-.38-.92l-1.01-.47c-.08-.04-.13-.16-.13-.27v-1.44Z"/><path class="cls-1" d="M74.9,45.25c-22.52-7.18-42.77-8.32-70.76,0-7.39,17.8-3.28,37.72,0,45.33,5.78,2.38,11.92,3.89,18.16,4.74,4.07,8.44,9.17,16.85,9.17,16.85,0,0,10.2-10.25,16.51-16.54,10.11-.96,19.5-2.97,26.92-5.06,5.18-21.14,4.17-28.62,0-45.33ZM35.75,81.45c-7.26,0-14.38-.61-21.28-1.83l.75-4.24c9.58,1.69,19.62,2.16,29.85,1.42l.31,4.3c-3.23.24-6.44.35-9.63.35ZM33.61,69.06c-6.13.26-12.46.54-18.7.76l-.16-4.31c6.22-.23,12.55-.5,18.67-.76,9.66-.42,19.64-.85,29.48-1.11l.11,4.31c-9.8.26-19.77.69-29.41,1.1ZM62.74,58.74c-15.56-1.69-30.22-1.12-47.53,1.85l-.73-4.24c17.72-3.04,32.75-3.62,48.73-1.89l-.46,4.28Z"/><path class="cls-2" d="M68.98,120.99c0,2.14-13.17,3.88-29.41,3.88s-29.41-1.74-29.41-3.88,13.17-3.88,29.41-3.88,29.41,1.74,29.41,3.88Z"/></svg>